<?xml version="1.0" encoding="UTF-8" standalone="no"?>
<svg width="15px" height="15px" viewBox="0 0 15 15" version="1.1" xmlns="http://www.w3.org/2000/svg" xmlns:xlink="http://www.w3.org/1999/xlink">
    <!-- Generator: Sketch 48.2 (47327) - http://www.bohemiancoding.com/sketch -->
    <title>Artboard Copy</title>
    <desc>Created with Sketch.</desc>
    <defs></defs>
    <g id="Page-1" stroke="none" stroke-width="1" fill-rule="evenodd">
        <g id="Artboard-Copy">
            <path d="M7.5,5.80901584 L12.4788369,0.983884592 C12.4842888,0.978600968 12.4897914,0.973369886 12.495344,0.968192073 C12.9737458,0.522075097 13.7232165,0.548247188 14.1693334,1.02664907 C14.6266518,1.51706301 14.6072682,2.28330654 14.1257386,2.74997044 L9.23462331,7.49008821 L14.1257386,12.230206 C14.6072682,12.6968699 14.6266518,13.4631134 14.1693334,13.9535273 C13.7232165,14.4319292 12.9737458,14.4581013 12.495344,14.0119843 C12.4897914,14.0068065 12.4842888,14.0015755 12.4788369,13.9962918 L7.5,9.17116058 L2.52116311,13.9962918 C2.51571118,14.0015755 2.51020857,14.0068065 2.50465604,14.0119843 C2.02625416,14.4581013 1.27678354,14.4319292 0.83066656,13.9535273 C0.373348164,13.4631134 0.392731822,12.6968699 0.874261412,12.230206 L5.76537669,7.49008821 L0.874261412,2.74997044 C0.392731822,2.28330654 0.373348164,1.51706301 0.83066656,1.02664907 C1.27678354,0.548247188 2.02625416,0.522075097 2.50465604,0.968192073 C2.51020857,0.973369886 2.51571118,0.978600968 2.52116311,0.983884592 L7.5,5.80901584 Z" id="Combined-Shape"></path>
        </g>
    </g>
</svg>
