<?xml version="1.0" encoding="UTF-8" standalone="no"?>
<svg width="15px" height="15px" viewBox="0 0 15 15" version="1.1" xmlns="http://www.w3.org/2000/svg" xmlns:xlink="http://www.w3.org/1999/xlink">
    <!-- Generator: Sketch 47.1 (45422) - http://www.bohemiancoding.com/sketch -->
    <title>home copy</title>
    <desc>Created with Sketch.</desc>
    <defs></defs>
    <g id="Page-1" stroke="none" stroke-width="1" fill-rule="evenodd">
        <g id="home-copy">
            <path d="M3.20765311,8.58558046 L7.2138511,12.6364094 C7.58447128,13.0114511 7.58447128,13.6192335 7.2138511,13.9936427 C6.84323091,14.3686843 6.24261371,14.3686843 5.87136853,13.9936427 L0.276441172,8.33576352 C0.086443639,8.14349935 -0.0048051762,7.89052018 0.00019475888,7.63817346 C-0.0048051762,7.38456184 0.086443639,7.13095022 0.276441172,6.93868605 L5.87136853,1.28080688 C6.24261371,0.906397707 6.84323091,0.906397707 7.2138511,1.28080688 C7.58447128,1.6558485 7.58447128,2.26363096 7.2138511,2.63804014 L3.20765311,6.68950157 L14.0625122,6.68950157 C14.5800055,6.68950157 15,7.11387413 15,7.63690856 C15,8.16057545 14.5800055,8.58558046 14.0625122,8.58558046 L3.20765311,8.58558046 Z" id="path-1-path" transform="translate(7.500000, 7.637462) scale(-1, 1) translate(-7.500000, -7.637462) "></path>
        </g>
    </g>
</svg>
